<?xml version="1.0" standalone="no"?><!DOCTYPE svg PUBLIC "-//W3C//DTD SVG 1.1//EN" "http://www.w3.org/Graphics/SVG/1.1/DTD/svg11.dtd"><svg t="1639875594184" class="icon" viewBox="0 0 2327 1024" version="1.1" xmlns="http://www.w3.org/2000/svg" p-id="1658" xmlns:xlink="http://www.w3.org/1999/xlink" width="454.4921875" height="200"><defs><style type="text/css">@font-face { font-family: Multicolore; font-style: normal; font-weight: 400; src: local("Multicolore"), local("Multicolore"), url("chrome-extension://hfapbcheiepjppjbnkphkmegjlipojba/fonts/Multicolore.ttf.woff") format("woff"); }
    @font-face { font-family: "PT Sans"; font-style: normal; font-weight: 400; src: local("PT Sans"), local("PTSans-Regular"), url("chrome-extension://hfapbcheiepjppjbnkphkmegjlipojba/fonts/ptsans-v8/fhNmDCnjccoUYyU4ZASaLVKPGs1ZzpMvnHX-7fPOuAc.woff2") format("woff2"); unicode-range: U+460-52F, U+20B4, U+2DE0-2DFF, U+A640-A69F; }
    @font-face { font-family: "PT Sans"; font-style: normal; font-weight: 400; src: local("PT Sans"), local("PTSans-Regular"), url("chrome-extension://hfapbcheiepjppjbnkphkmegjlipojba/fonts/ptsans-v8/BJVWev7_auVaQ__OU8Qih1KPGs1ZzpMvnHX-7fPOuAc.woff2") format("woff2"); unicode-range: U+400-45F, U+490-491, U+4B0-4B1, U+2116; }
    @font-face { font-family: "PT Sans"; font-style: normal; font-weight: 400; src: local("PT Sans"), local("PTSans-Regular"), url("chrome-extension://hfapbcheiepjppjbnkphkmegjlipojba/fonts/ptsans-v8/oysROHFTu1eTZ74Hcf8V-VKPGs1ZzpMvnHX-7fPOuAc.woff2") format("woff2"); unicode-range: U+100-24F, U+1E00-1EFF, U+20A0-20AB, U+20AD-20CF, U+2C60-2C7F, U+A720-A7FF; }
    @font-face { font-family: "PT Sans"; font-style: normal; font-weight: 400; src: local("PT Sans"), local("PTSans-Regular"), url("chrome-extension://hfapbcheiepjppjbnkphkmegjlipojba/fonts/ptsans-v8/CWlc_g68BGYDSGdpJvpktgLUuEpTyoUstqEm5AMlJo4.woff2") format("woff2"); unicode-range: U+0-FF, U+131, U+152-153, U+2C6, U+2DA, U+2DC, U+2000-206F, U+2074, U+20AC, U+2212, U+2215; }
    @font-face { font-family: "PT Sans"; font-style: normal; font-weight: 700; src: local("PT Sans Bold"), local("PTSans-Bold"), url("chrome-extension://hfapbcheiepjppjbnkphkmegjlipojba/fonts/ptsans-v8/kTYfCWJhlldPf5LnG4ZnHAsYbbCjybiHxArTLjt7FRU.woff2") format("woff2"); unicode-range: U+460-52F, U+20B4, U+2DE0-2DFF, U+A640-A69F; }
    @font-face { font-family: "PT Sans"; font-style: normal; font-weight: 700; src: local("PT Sans Bold"), local("PTSans-Bold"), url("chrome-extension://hfapbcheiepjppjbnkphkmegjlipojba/fonts/ptsans-v8/g46X4VH_KHOWAAa-HpnGPgsYbbCjybiHxArTLjt7FRU.woff2") format("woff2"); unicode-range: U+400-45F, U+490-491, U+4B0-4B1, U+2116; }
    @font-face { font-family: "PT Sans"; font-style: normal; font-weight: 700; src: local("PT Sans Bold"), local("PTSans-Bold"), url("chrome-extension://hfapbcheiepjppjbnkphkmegjlipojba/fonts/ptsans-v8/hpORcvLZtemlH8gI-1S-7gsYbbCjybiHxArTLjt7FRU.woff2") format("woff2"); unicode-range: U+100-24F, U+1E00-1EFF, U+20A0-20AB, U+20AD-20CF, U+2C60-2C7F, U+A720-A7FF; }
    @font-face { font-family: "PT Sans"; font-style: normal; font-weight: 700; src: local("PT Sans Bold"), local("PTSans-Bold"), url("chrome-extension://hfapbcheiepjppjbnkphkmegjlipojba/fonts/ptsans-v8/0XxGQsSc1g4rdRdjJKZrNAzyDMXhdD8sAj6OAJTFsBI.woff2") format("woff2"); unicode-range: U+0-FF, U+131, U+152-153, U+2C6, U+2DA, U+2DC, U+2000-206F, U+2074, U+20AC, U+2212, U+2215; }
    @font-face { font-family: "Open Sans"; font-style: normal; font-weight: 400; src: local("Open Sans"), local("OpenSans"), url("chrome-extension://hfapbcheiepjppjbnkphkmegjlipojba/fonts/open-sans-v13-latin-regular.woff2") format("woff2"); }
    @font-face { font-family: "Open Sans"; font-style: normal; font-weight: 600; src: local("Open Sans Semibold"), local("OpenSans-Semibold"), url("chrome-extension://hfapbcheiepjppjbnkphkmegjlipojba/fonts/open-sans-v13-latin-600.woff2") format("woff2"); }
    @font-face { font-family: "Open Sans"; font-style: normal; font-weight: 700; src: local("Open Sans Bold"), local("OpenSans-Bold"), url("chrome-extension://hfapbcheiepjppjbnkphkmegjlipojba/fonts/open-sans-v13-latin-700.woff2") format("woff2"); }
    @font-face { font-family: FontAwesome; font-style: normal; src: local("Font Awesome"), local("FontAwesome"), url("chrome-extension://hfapbcheiepjppjbnkphkmegjlipojba/fonts/fontawesome-webfont.woff2") format("woff2"); }
    @font-face { font-family: Roboto; font-style: normal; font-weight: 300; src: local("Roboto"), local("Roboto"), url("chrome-extension://hfapbcheiepjppjbnkphkmegjlipojba/fonts/roboto/KFOlCnqEu92Fr1MmYUtfCxc4AMP6lbqE.woff2") format("woff2"); unicode-range: U+460-52F, U+1C80-1C88, U+20B4, U+2DE0-2DFF, U+A640-A69F, U+FE2E-FE2F; }
    @font-face { font-family: Roboto; font-style: normal; font-weight: 500; src: local("Roboto Medium"), local("Roboto-Medium"), url("chrome-extension://hfapbcheiepjppjbnkphkmegjlipojba/fonts/roboto/KFOlCnqEu92Fr1MmEU9fCRc4AMP6lbBP.woff2") format("woff2"); unicode-range: U+460-52F, U+1C80-1C88, U+20B4, U+2DE0-2DFF, U+A640-A69F, U+FE2E-FE2F; }
    @font-face { font-family: Roboto; font-style: normal; font-weight: 500; src: local("Roboto Medium"), local("Roboto-Medium"), url("chrome-extension://hfapbcheiepjppjbnkphkmegjlipojba/fonts/roboto/KFOlCnqEu92Fr1MmEU9fABc4AMP6lbBP.woff2") format("woff2"); unicode-range: U+400-45F, U+490-491, U+4B0-4B1, U+2116; }
    @font-face { font-family: Roboto; font-style: normal; font-weight: 500; src: local("Roboto Medium"), local("Roboto-Medium"), url("chrome-extension://hfapbcheiepjppjbnkphkmegjlipojba/fonts/roboto/KFOlCnqEu92Fr1MmEU9fCBc4AMP6lbBP.woff2") format("woff2"); unicode-range: U+1F00-1FFF; }
    @font-face { font-family: Roboto; font-style: normal; font-weight: 500; src: local("Roboto Medium"), local("Roboto-Medium"), url("chrome-extension://hfapbcheiepjppjbnkphkmegjlipojba/fonts/roboto/KFOlCnqEu92Fr1MmEU9fBxc4AMP6lbBP.woff2") format("woff2"); unicode-range: U+370-3FF; }
    @font-face { font-family: Roboto; font-style: normal; font-weight: 500; src: local("Roboto Medium"), local("Roboto-Medium"), url("chrome-extension://hfapbcheiepjppjbnkphkmegjlipojba/fonts/roboto/KFOlCnqEu92Fr1MmEU9fCxc4AMP6lbBP.woff2") format("woff2"); unicode-range: U+102-103, U+110-111, U+1EA0-1EF9, U+20AB; }
    @font-face { font-family: Roboto; font-style: normal; font-weight: 500; src: local("Roboto Medium"), local("Roboto-Medium"), url("chrome-extension://hfapbcheiepjppjbnkphkmegjlipojba/fonts/roboto/KFOlCnqEu92Fr1MmEU9fChc4AMP6lbBP.woff2") format("woff2"); unicode-range: U+100-24F, U+259, U+1E00-1EFF, U+2020, U+20A0-20AB, U+20AD-20CF, U+2113, U+2C60-2C7F, U+A720-A7FF; }
    @font-face { font-family: Roboto; font-style: normal; font-weight: 500; src: local("Roboto Medium"), local("Roboto-Medium"), url("chrome-extension://hfapbcheiepjppjbnkphkmegjlipojba/fonts/roboto/KFOlCnqEu92Fr1MmEU9fBBc4AMP6lQ.woff2") format("woff2"); unicode-range: U+0-FF, U+131, U+152-153, U+2BB-2BC, U+2C6, U+2DA, U+2DC, U+2000-206F, U+2074, U+20AC, U+2122, U+2191, U+2193, U+2212, U+2215, U+FEFF, U+FFFD; }
    @font-face { font-family: Roboto; font-style: normal; font-weight: 700; src: local("Roboto Bold"), local("Roboto-Bold"), url("chrome-extension://hfapbcheiepjppjbnkphkmegjlipojba/fonts/roboto/KFOlCnqEu92Fr1MmWUlfCRc4AMP6lbBP.woff2") format("woff2"); unicode-range: U+460-52F, U+1C80-1C88, U+20B4, U+2DE0-2DFF, U+A640-A69F, U+FE2E-FE2F; }
    @font-face { font-family: Roboto; font-style: normal; font-weight: 700; src: local("Roboto Bold"), local("Roboto-Bold"), url("chrome-extension://hfapbcheiepjppjbnkphkmegjlipojba/fonts/roboto/KFOlCnqEu92Fr1MmWUlfABc4AMP6lbBP.woff2") format("woff2"); unicode-range: U+400-45F, U+490-491, U+4B0-4B1, U+2116; }
    @font-face { font-family: Roboto; font-style: normal; font-weight: 700; src: local("Roboto Bold"), local("Roboto-Bold"), url("chrome-extension://hfapbcheiepjppjbnkphkmegjlipojba/fonts/roboto/KFOlCnqEu92Fr1MmWUlfCBc4AMP6lbBP.woff2") format("woff2"); unicode-range: U+1F00-1FFF; }
    @font-face { font-family: Roboto; font-style: normal; font-weight: 700; src: local("Roboto Bold"), local("Roboto-Bold"), url("chrome-extension://hfapbcheiepjppjbnkphkmegjlipojba/fonts/roboto/KFOlCnqEu92Fr1MmWUlfBxc4AMP6lbBP.woff2") format("woff2"); unicode-range: U+370-3FF; }
    @font-face { font-family: Roboto; font-style: normal; font-weight: 700; src: local("Roboto Bold"), local("Roboto-Bold"), url("chrome-extension://hfapbcheiepjppjbnkphkmegjlipojba/fonts/roboto/KFOlCnqEu92Fr1MmWUlfCxc4AMP6lbBP.woff2") format("woff2"); unicode-range: U+102-103, U+110-111, U+1EA0-1EF9, U+20AB; }
    @font-face { font-family: Roboto; font-style: normal; font-weight: 700; src: local("Roboto Bold"), local("Roboto-Bold"), url("chrome-extension://hfapbcheiepjppjbnkphkmegjlipojba/fonts/roboto/KFOlCnqEu92Fr1MmWUlfChc4AMP6lbBP.woff2") format("woff2"); unicode-range: U+100-24F, U+259, U+1E00-1EFF, U+2020, U+20A0-20AB, U+20AD-20CF, U+2113, U+2C60-2C7F, U+A720-A7FF; }
    @font-face { font-family: Roboto; font-style: normal; font-weight: 700; src: local("Roboto Bold"), local("Roboto-Bold"), url("chrome-extension://hfapbcheiepjppjbnkphkmegjlipojba/fonts/roboto/KFOlCnqEu92Fr1MmWUlfBBc4AMP6lQ.woff2") format("woff2"); unicode-range: U+0-FF, U+131, U+152-153, U+2BB-2BC, U+2C6, U+2DA, U+2DC, U+2000-206F, U+2074, U+20AC, U+2122, U+2191, U+2193, U+2212, U+2215, U+FEFF, U+FFFD; }
    @font-face { font-family: Roboto; font-style: normal; font-weight: 900; src: local("Roboto Black"), local("Roboto-Black"), url("chrome-extension://hfapbcheiepjppjbnkphkmegjlipojba/fonts/roboto/KFOlCnqEu92Fr1MmYUtfCRc4AMP6lbBP.woff2") format("woff2"); unicode-range: U+460-52F, U+1C80-1C88, U+20B4, U+2DE0-2DFF, U+A640-A69F, U+FE2E-FE2F; }
    @font-face { font-family: Roboto; font-style: normal; font-weight: 900; src: local("Roboto Black"), local("Roboto-Black"), url("chrome-extension://hfapbcheiepjppjbnkphkmegjlipojba/fonts/roboto/KFOlCnqEu92Fr1MmYUtfABc4AMP6lbBP.woff2") format("woff2"); unicode-range: U+400-45F, U+490-491, U+4B0-4B1, U+2116; }
    @font-face { font-family: Roboto; font-style: normal; font-weight: 900; src: local("Roboto Black"), local("Roboto-Black"), url("chrome-extension://hfapbcheiepjppjbnkphkmegjlipojba/fonts/roboto/KFOlCnqEu92Fr1MmYUtfCBc4AMP6lbBP.woff2") format("woff2"); unicode-range: U+1F00-1FFF; }
    @font-face { font-family: Roboto; font-style: normal; font-weight: 900; src: local("Roboto Black"), local("Roboto-Black"), url("chrome-extension://hfapbcheiepjppjbnkphkmegjlipojba/fonts/roboto/KFOlCnqEu92Fr1MmYUtfBxc4AMP6lbBP.woff2") format("woff2"); unicode-range: U+370-3FF; }
    @font-face { font-family: Roboto; font-style: normal; font-weight: 900; src: local("Roboto Black"), local("Roboto-Black"), url("chrome-extension://hfapbcheiepjppjbnkphkmegjlipojba/fonts/roboto/KFOlCnqEu92Fr1MmYUtfCxc4AMP6lbBP.woff2") format("woff2"); unicode-range: U+102-103, U+110-111, U+1EA0-1EF9, U+20AB; }
    @font-face { font-family: Roboto; font-style: normal; font-weight: 900; src: local("Roboto Black"), local("Roboto-Black"), url("chrome-extension://hfapbcheiepjppjbnkphkmegjlipojba/fonts/roboto/KFOlCnqEu92Fr1MmYUtfChc4AMP6lbBP.woff2") format("woff2"); unicode-range: U+100-24F, U+259, U+1E00-1EFF, U+2020, U+20A0-20AB, U+20AD-20CF, U+2113, U+2C60-2C7F, U+A720-A7FF; }
    @font-face { font-family: Roboto; font-style: normal; font-weight: 900; src: local("Roboto Black"), local("Roboto-Black"), url("chrome-extension://hfapbcheiepjppjbnkphkmegjlipojba/fonts/roboto/KFOlCnqEu92Fr1MmYUtfBBc4AMP6lQ.woff2") format("woff2"); unicode-range: U+0-FF, U+131, U+152-153, U+2BB-2BC, U+2C6, U+2DA, U+2DC, U+2000-206F, U+2074, U+20AC, U+2122, U+2191, U+2193, U+2212, U+2215, U+FEFF, U+FFFD; }
    @font-face { font-family: Montserrat; font-style: normal; font-weight: 400; src: local("Montserrat Regular"), local("Montserrat-Regular"), url("chrome-extension://hfapbcheiepjppjbnkphkmegjlipojba/fonts/montserrat/Montserrat-Regular.woff2") format("woff2"); }
    @font-face { font-family: Montserrat; font-style: normal; font-weight: 500; src: local("Montserrat Medium"), local("Montserrat-Medium"), url("chrome-extension://hfapbcheiepjppjbnkphkmegjlipojba/fonts/montserrat/Montserrat-Medium.woff2") format("woff2"); }
    @font-face { font-family: Montserrat; font-style: normal; font-weight: 600; src: local("Montserrat SemiBold"), local("Montserrat-SemiBold"), url("chrome-extension://hfapbcheiepjppjbnkphkmegjlipojba/fonts/montserrat/Montserrat-SemiBold.woff2") format("woff2"); }
    @font-face { font-family: Montserrat; font-style: normal; font-weight: 700; src: local("Montserrat Bold"), local("Montserrat-Bold"), url("chrome-extension://hfapbcheiepjppjbnkphkmegjlipojba/fonts/montserrat/Montserrat-Bold.woff2") format("woff2"); }
    @font-face { font-family: Montserrat; font-style: normal; font-weight: 800; src: local("Montserrat ExtraBold"), local("Montserrat-ExtraBold"), url("chrome-extension://hfapbcheiepjppjbnkphkmegjlipojba/fonts/montserrat/Montserrat-ExtraBold.woff2") format("woff2"); }
</style></defs><path d="M513.551515 1017.793939c-4.654545 0-10.860606-1.551515-15.515151-3.10303-21.721212-9.309091-32.581818-34.133333-24.824243-55.854545 54.30303-138.084848 145.842424-256 268.412121-339.781819 124.121212-86.884848 271.515152-133.430303 423.563637-133.430303s299.442424 46.545455 423.563636 133.430303c121.018182 85.333333 214.109091 203.248485 268.412121 339.781819 9.309091 21.721212-3.10303 46.545455-24.824242 55.854545-21.721212 7.757576-46.545455-3.10303-55.854546-24.824242-99.29697-254.448485-338.230303-418.909091-611.296969-418.909091-273.066667 0-512 164.460606-611.29697 418.909091-7.757576 17.066667-23.272727 27.927273-40.339394 27.927272z" fill="#FFFFFF" p-id="1659"></path><path d="M513.551515 1017.793939c-4.654545 0-10.860606-1.551515-15.515151-3.10303-21.721212-9.309091-32.581818-34.133333-24.824243-55.854545 54.30303-138.084848 145.842424-256 268.412121-339.781819 124.121212-86.884848 271.515152-133.430303 423.563637-133.430303s299.442424 46.545455 423.563636 133.430303c121.018182 85.333333 214.109091 203.248485 268.412121 339.781819 9.309091 21.721212-3.10303 46.545455-24.824242 55.854545-21.721212 7.757576-46.545455-3.10303-55.854546-24.824242-99.29697-254.448485-338.230303-418.909091-611.296969-418.909091-273.066667 0-512 164.460606-611.29697 418.909091-7.757576 17.066667-23.272727 27.927273-40.339394 27.927272z" fill="#2767F4" p-id="1660"></path><path d="M597.333333 356.848485h18.618182" fill="#FFFFFF" p-id="1661"></path><path d="M615.951515 356.848485h133.430303c60.509091 0 119.466667-21.721212 166.012121-60.509091l97.745455-82.230303c29.478788-24.824242 65.163636-37.236364 103.951515-37.236364h96.193939c37.236364 0 74.472727 13.963636 103.951516 37.236364l97.745454 82.230303c46.545455 38.787879 105.50303 60.509091 166.012121 60.509091h411.151516v102.4h-364.606061c-88.436364 0-170.666667 44.993939-217.212121 119.466667l-114.812121 179.975757c-13.963636 21.721212-38.787879 35.684848-65.163637 35.684849H1101.575758c-26.375758 0-51.2-13.963636-65.163637-35.684849l-114.812121-179.975757c-48.09697-74.472727-128.775758-119.466667-217.212121-119.466667h-372.363637V356.848485h175.321213" fill="#4988FD" p-id="1662"></path><path d="M1314.133333 609.745455c0 82.230303-66.715152 150.49697-150.496969 150.496969-82.230303 0-150.49697-66.715152-150.49697-150.496969 0-15.515152 1.551515-29.478788 6.206061-43.442425 18.618182-62.060606 76.024242-107.054545 144.290909-107.054545s125.672727 44.993939 144.290909 107.054545c4.654545 13.963636 6.206061 29.478788 6.20606 43.442425z" fill="#C5DCFA" p-id="1663"></path><path d="M1307.927273 567.854545c-18.618182 62.060606-76.024242 107.054545-144.290909 107.054546s-125.672727-44.993939-144.290909-107.054546c18.618182-62.060606 76.024242-107.054545 144.290909-107.054545 69.818182-1.551515 125.672727 44.993939 144.290909 107.054545z" fill="#FFFFFF" p-id="1664"></path><path d="M1149.672727 594.230303m-15.515151 0a15.515152 15.515152 0 1 0 31.030303 0 15.515152 15.515152 0 1 0-31.030303 0Z" fill="#FFFFFF" p-id="1665"></path><path d="M1165.187879 609.745455m-68.266667 0a68.266667 68.266667 0 1 0 136.533333 0 68.266667 68.266667 0 1 0-136.533333 0Z" fill="#4988FD" p-id="1666"></path><path d="M2003.006061 43.442424h-34.133334c-12.412121 0-23.272727 10.860606-23.272727 23.272728v342.884848c0 12.412121 10.860606 23.272727 23.272727 23.272727h34.133334c12.412121 0 23.272727-10.860606 23.272727-23.272727V66.715152c0-13.963636-10.860606-23.272727-23.272727-23.272728zM358.4 43.442424h-34.133333c-12.412121 0-23.272727 10.860606-23.272728 23.272728v342.884848c0 12.412121 10.860606 23.272727 23.272728 23.272727h34.133333c12.412121 0 23.272727-10.860606 23.272727-23.272727V66.715152c-1.551515-13.963636-10.860606-23.272727-23.272727-23.272728z" fill="#2767F4" p-id="1667"></path><path d="M670.254545 54.30303C629.915152 27.927273 567.854545 13.963636 499.587879 13.963636c-44.993939 0-85.333333 6.206061-121.018182 17.066667-9.309091-9.309091-23.272727-13.963636-37.236364-13.963636-12.412121 0-24.824242 4.654545-34.133333 12.412121-34.133333-10.860606-72.921212-15.515152-114.812121-15.515152-68.266667 0-130.327273 15.515152-170.666667 40.339394-6.206061 4.654545-10.860606 10.860606-10.860606 18.618182s4.654545 15.515152 10.860606 18.618182C62.060606 117.915152 124.121212 131.878788 192.387879 131.878788c58.957576 0 114.812121-10.860606 153.6-31.030303 40.339394 20.169697 94.642424 31.030303 153.6 31.030303 68.266667 0 130.327273-15.515152 170.666666-40.339394 6.206061-4.654545 10.860606-10.860606 10.860607-18.618182s-4.654545-13.963636-10.860607-18.618182zM2311.757576 54.30303c-40.339394-26.375758-102.4-40.339394-170.666667-40.339394-44.993939 0-85.333333 6.206061-121.018182 17.066667-9.309091-9.309091-23.272727-13.963636-37.236363-13.963636-12.412121 0-24.824242 4.654545-34.133334 12.412121-34.133333-10.860606-72.921212-15.515152-114.812121-15.515152-68.266667 0-130.327273 15.515152-170.666667 40.339394-6.206061 4.654545-10.860606 10.860606-10.860606 18.618182s4.654545 15.515152 10.860606 18.618182c40.339394 26.375758 102.4 40.339394 170.666667 40.339394 58.957576 0 114.812121-10.860606 153.6-31.030303 40.339394 20.169697 94.642424 31.030303 153.6 31.030303 68.266667 0 130.327273-15.515152 170.666667-40.339394 6.206061-4.654545 10.860606-10.860606 10.860606-18.618182-1.551515-7.757576-4.654545-13.963636-10.860606-18.618182z" fill="#4988FD" p-id="1668"></path><path d="M1985.939394 597.333333c-32.581818 0-60.509091-26.375758-60.509091-60.509091v-248.242424c0-32.581818 26.375758-60.509091 60.509091-60.509091 32.581818 0 60.509091 26.375758 60.509091 60.509091v248.242424c0 34.133333-26.375758 60.509091-60.509091 60.509091zM341.333333 597.333333c-32.581818 0-60.509091-26.375758-60.509091-60.509091v-248.242424c0-32.581818 26.375758-60.509091 60.509091-60.509091 32.581818 0 60.509091 26.375758 60.509091 60.509091v248.242424c-1.551515 34.133333-27.927273 60.509091-60.509091 60.509091z" fill="#2767F4" p-id="1669"></path><path d="M1039.515152 443.733333c-12.412121 0-23.272727-10.860606-23.272728-23.272727v-119.466667c0-12.412121 10.860606-23.272727 23.272728-23.272727s23.272727 10.860606 23.272727 23.272727v119.466667c-1.551515 13.963636-10.860606 23.272727-23.272727 23.272727zM1104.678788 435.975758c-12.412121 0-23.272727-10.860606-23.272727-23.272728v-142.739394c0-12.412121 10.860606-23.272727 23.272727-23.272727s23.272727 10.860606 23.272727 23.272727v142.739394c0 13.963636-10.860606 23.272727-23.272727 23.272728zM1169.842424 429.769697c-12.412121 0-23.272727-10.860606-23.272727-23.272727v-150.49697c0-12.412121 10.860606-23.272727 23.272727-23.272727s23.272727 10.860606 23.272728 23.272727v150.49697c0 13.963636-10.860606 23.272727-23.272728 23.272727zM1235.006061 434.424242c-12.412121 0-23.272727-10.860606-23.272728-23.272727v-141.187879c0-12.412121 10.860606-23.272727 23.272728-23.272727s23.272727 10.860606 23.272727 23.272727v141.187879c0 13.963636-10.860606 23.272727-23.272727 23.272727zM1300.169697 443.733333c-12.412121 0-23.272727-10.860606-23.272727-23.272727v-124.121212c0-12.412121 10.860606-23.272727 23.272727-23.272727s23.272727 10.860606 23.272727 23.272727v124.121212c0 13.963636-10.860606 23.272727-23.272727 23.272727z" fill="#4988FD" p-id="1670"></path></svg>